<?xml version="1.0" standalone="no"?>
<!DOCTYPE svg PUBLIC "-//W3C//DTD SVG 20010904//EN"
 "http://www.w3.org/TR/2001/REC-SVG-20010904/DTD/svg10.dtd">
<svg version="1.0" xmlns="http://www.w3.org/2000/svg"
 width="1000.000000pt" height="1000.000000pt" viewBox="0 0 1000.000000 1000.000000"
 preserveAspectRatio="xMidYMid meet">
<metadata>
Created by potrace 1.14, written by Peter Selinger 2001-2017
</metadata>
<g transform="translate(0.000000,1000.000000) scale(0.100000,-0.100000)"
fill="#000000" stroke="none">
<path d="M2424 6559 l-29 -30 -1 -1037 c0 -787 -4 -1047 -13 -1080 -40 -141
-119 -203 -260 -204 -60 -1 -87 4 -126 23 -66 31 -143 111 -185 192 -29 55
-41 68 -74 81 l-40 16 -245 -137 c-135 -75 -266 -148 -291 -161 -25 -14 -47
-26 -48 -28 -2 -1 14 -43 36 -93 117 -265 324 -454 596 -545 43 -14 91 -28
105 -31 14 -3 37 -7 51 -10 79 -16 297 -22 360 -11 14 3 46 7 73 11 26 3 58
10 72 15 14 5 25 7 25 5 0 -7 140 45 195 73 291 145 482 443 510 793 4 46 7
432 8 857 l0 772 66 1 c223 2 504 -1 509 -5 3 -3 5 -548 5 -1211 l0 -1204 29
-30 29 -30 305 1 304 1 28 31 27 31 0 797 c0 438 3 794 7 791 5 -2 8 -8 8 -13
0 -5 20 -53 45 -106 25 -53 45 -97 45 -99 0 -1 23 -51 50 -109 27 -58 50 -108
50 -110 0 -2 17 -42 39 -88 21 -45 50 -108 64 -138 13 -30 52 -113 84 -185
101 -218 114 -246 160 -350 25 -55 72 -158 105 -230 32 -71 69 -151 81 -176
l21 -47 242 0 242 1 72 161 c40 89 90 197 110 241 21 44 48 103 60 130 24 53
52 116 119 258 22 49 41 90 41 92 0 2 23 51 50 110 28 59 50 108 50 110 0 1
25 55 55 119 30 64 55 118 55 120 0 5 89 199 129 281 20 40 20 39 20 -764 l1
-804 29 -28 29 -28 305 1 305 0 28 29 27 28 0 1210 -1 1211 49 1 c27 0 94 0
149 0 55 0 170 0 255 0 l155 -1 0 -980 0 -980 -138 0 -138 0 -27 -28 -27 -28
0 -221 0 -222 28 -30 27 -30 641 0 642 0 30 30 31 30 -1 222 -1 221 -27 28
c-27 27 -31 27 -161 30 l-134 3 0 978 0 977 30 1 c16 0 77 1 133 1 102 1 104
2 132 31 l28 30 0 221 0 220 -27 29 -26 28 -1229 -3 -1229 -3 -27 -60 c-15
-33 -40 -87 -54 -120 -15 -33 -36 -78 -46 -100 -10 -22 -70 -157 -135 -300
-64 -143 -125 -278 -135 -300 -10 -22 -63 -139 -118 -260 -55 -121 -114 -250
-131 -288 -17 -37 -31 -69 -31 -71 0 -2 -17 -42 -39 -88 -57 -122 -142 -309
-153 -338 -8 -22 -15 -12 -67 105 -32 72 -70 157 -86 190 -15 33 -76 169 -136
303 -60 133 -120 266 -133 295 -38 82 -267 590 -373 824 l-96 213 -1062 0
-1062 -1 -29 -30z"/>
</g>
</svg>
